<?xml version="1.0" encoding="UTF-8"?>
<svg xmlns="http://www.w3.org/2000/svg" xmlns:xlink="http://www.w3.org/1999/xlink" width="2834.88" height="2834.88" viewBox="0 0 2834.88 2834.88">
<path fill-rule="evenodd" fill="rgb(18.089294%, 24.388123%, 59.959412%)" fill-opacity="1" d="M 1246.839844 1541.269531 L 1246.839844 1541.25 C 1283.171875 1539.910156 1311.519531 1555.910156 1341.5 1573.058594 C 1366.941406 1587.601562 1393.871094 1603.199219 1424.921875 1602.878906 C 1445.78125 1602.660156 1463.898438 1590.488281 1482.449219 1578.308594 C 1509.019531 1560.878906 1536.148438 1543.238281 1577.890625 1543.160156 C 1619.230469 1543.070312 1653.179688 1562.519531 1684.238281 1580.480469 C 1696.550781 1587.601562 1708.28125 1594.410156 1718.589844 1598.648438 C 1724.941406 1601.269531 1730.691406 1602.921875 1735.621094 1602.839844 C 1750.308594 1602.601562 1768.789062 1591.238281 1788.53125 1579.480469 L 1788.53125 1579.46875 C 1817.980469 1561.929688 1849.378906 1543.390625 1888.761719 1542.789062 C 1920.410156 1542.308594 1945.421875 1556.71875 1972.609375 1572.609375 L 1972.609375 1572.621094 C 1977.199219 1575.300781 1981.878906 1578.039062 1986.710938 1580.738281 C 1992.601562 1584.039062 1996.058594 1588.980469 1997.121094 1594.109375 C 1998.238281 1599.5 1996.808594 1605.261719 1992.339844 1610.019531 C 1984.480469 1618.390625 1969.359375 1620.429688 1958.558594 1614.378906 C 1953.511719 1611.558594 1948.558594 1608.648438 1943.660156 1605.789062 C 1923.769531 1594.148438 1905.601562 1583.210938 1889.691406 1583.441406 C 1865.351562 1583.808594 1840.890625 1598.640625 1817.859375 1612.371094 C 1791.238281 1628.238281 1766.101562 1643.011719 1736.558594 1643.488281 C 1708.269531 1643.941406 1682.921875 1629.53125 1655.488281 1613.679688 C 1630.929688 1599.46875 1604.179688 1583.761719 1577.910156 1583.808594 C 1553.199219 1583.851562 1533.21875 1597.230469 1513.550781 1610.140625 C 1488.039062 1626.878906 1462.96875 1643.140625 1425.5 1643.539062 C 1379.03125 1644.011719 1345 1624.710938 1312.949219 1606.390625 C 1290.480469 1593.539062 1269.351562 1581.148438 1249.078125 1581.898438 C 1249.03125 1581.898438 1248.980469 1581.898438 1248.929688 1581.898438 C 1248.929688 1581.898438 1248.320312 1581.898438 1248.320312 1581.898438 C 1219.039062 1582.300781 1191.371094 1598.53125 1166.109375 1613.140625 L 1166.109375 1613.148438 C 1139.019531 1628.808594 1114.070312 1643.019531 1085.449219 1643.488281 C 1055.871094 1643.960938 1033.988281 1629.070312 1010.339844 1612.660156 C 990.597656 1598.96875 969.109375 1583.738281 944.078125 1583.800781 C 925.648438 1583.851562 906.367188 1596.089844 886.488281 1608.410156 C 882.238281 1611.039062 877.960938 1613.671875 876.878906 1614.328125 L 876.878906 1614.339844 C 866.382812 1620.710938 851.175781 1619.171875 842.917969 1611.050781 C 838.230469 1606.449219 836.535156 1600.761719 837.375 1595.371094 C 838.183594 1590.171875 841.414062 1585.101562 847.15625 1581.609375 C 852.375 1578.441406 854.398438 1577.191406 856.402344 1575.960938 C 883.3125 1559.300781 909.609375 1543.230469 944.058594 1543.160156 C 986.746094 1543.050781 1015.941406 1563.089844 1042.570312 1581.578125 C 1052.359375 1588.371094 1061.679688 1594.859375 1070.191406 1598.910156 C 1075.328125 1601.351562 1080.121094 1602.910156 1084.519531 1602.839844 C 1098.738281 1602.609375 1117.179688 1591.621094 1137.378906 1579.941406 C 1168.710938 1561.828125 1203.140625 1542.070312 1246.851562 1541.261719 Z M 1243.179688 1545.921875 C 1242.859375 1545.640625 1242.648438 1545.550781 1242.648438 1545.789062 C 1242.648438 1545.839844 1242.648438 1545.890625 1242.648438 1545.941406 C 1242.828125 1545.929688 1243.011719 1545.921875 1243.179688 1545.921875 Z M 1246.839844 1645.75 L 1246.839844 1645.738281 C 1283.171875 1644.398438 1311.519531 1660.390625 1341.5 1677.539062 C 1366.941406 1692.078125 1393.871094 1707.691406 1424.921875 1707.371094 C 1445.78125 1707.148438 1463.898438 1694.96875 1482.449219 1682.800781 C 1509.019531 1665.359375 1536.148438 1647.71875 1577.890625 1647.640625 C 1619.230469 1647.570312 1653.179688 1667 1684.238281 1684.96875 C 1696.550781 1692.089844 1708.28125 1698.890625 1718.589844 1703.140625 C 1724.941406 1705.75 1730.691406 1707.410156 1735.621094 1707.328125 C 1750.308594 1707.078125 1768.789062 1695.730469 1788.53125 1683.960938 C 1817.980469 1666.421875 1849.378906 1647.871094 1888.761719 1647.28125 C 1920.410156 1646.800781 1945.421875 1661.199219 1972.609375 1677.101562 C 1977.199219 1679.789062 1981.890625 1682.53125 1986.710938 1685.238281 C 1992.589844 1688.53125 1996.058594 1693.46875 1997.121094 1698.601562 C 1998.238281 1703.988281 1996.808594 1709.738281 1992.339844 1714.5 C 1984.480469 1722.871094 1969.359375 1724.921875 1958.558594 1718.859375 C 1953.511719 1716.050781 1948.550781 1713.140625 1943.660156 1710.269531 C 1923.761719 1698.640625 1905.601562 1687.691406 1889.691406 1687.921875 C 1865.351562 1688.289062 1840.890625 1703.128906 1817.859375 1716.859375 C 1791.238281 1732.71875 1766.101562 1747.488281 1736.558594 1747.96875 C 1708.269531 1748.429688 1682.921875 1734.019531 1655.488281 1718.160156 C 1630.929688 1703.949219 1604.179688 1688.238281 1577.910156 1688.289062 C 1553.199219 1688.339844 1533.21875 1701.71875 1513.550781 1714.628906 C 1488.039062 1731.359375 1462.96875 1747.640625 1425.5 1748.019531 C 1379.03125 1748.5 1345 1729.199219 1312.949219 1710.890625 C 1290.480469 1698.019531 1269.351562 1685.640625 1249.078125 1686.378906 C 1249.03125 1686.378906 1248.980469 1686.378906 1248.929688 1686.378906 C 1248.929688 1686.378906 1248.320312 1686.378906 1248.320312 1686.378906 C 1219.039062 1686.789062 1191.371094 1703.019531 1166.109375 1717.628906 C 1139.019531 1733.289062 1114.070312 1747.511719 1085.449219 1747.96875 C 1055.871094 1748.441406 1033.988281 1733.558594 1010.339844 1717.148438 C 990.597656 1703.449219 969.109375 1688.230469 944.078125 1688.289062 C 925.648438 1688.339844 906.367188 1700.578125 886.488281 1712.890625 C 882.238281 1715.53125 877.960938 1718.160156 876.878906 1718.820312 C 866.382812 1725.199219 851.175781 1723.660156 842.917969 1715.539062 C 838.230469 1710.929688 836.535156 1705.238281 837.375 1699.851562 C 838.183594 1694.660156 841.414062 1689.589844 847.15625 1686.101562 C 852.375 1682.929688 854.398438 1681.679688 856.402344 1680.449219 C 883.3125 1663.789062 909.609375 1647.71875 944.058594 1647.640625 C 986.746094 1647.539062 1015.941406 1667.578125 1042.570312 1686.070312 C 1052.359375 1692.859375 1061.679688 1699.351562 1070.191406 1703.390625 C 1075.328125 1705.839844 1080.121094 1707.390625 1084.519531 1707.328125 C 1098.738281 1707.089844 1117.179688 1696.101562 1137.378906 1684.421875 C 1168.710938 1666.308594 1203.140625 1646.558594 1246.851562 1645.75 Z M 1243.179688 1650.398438 C 1242.859375 1650.121094 1242.648438 1650.039062 1242.648438 1650.269531 C 1242.648438 1650.320312 1242.648438 1650.378906 1242.648438 1650.429688 C 1242.828125 1650.421875 1243.011719 1650.410156 1243.179688 1650.398438 "/>
<path fill-rule="evenodd" fill="rgb(7.69043%, 8.006287%, 25.901794%)" fill-opacity="1" d="M 1167.171875 1537.390625 C 1166.078125 1535.140625 1165.058594 1532.890625 1164.140625 1530.679688 C 1152.910156 1503.679688 1146.53125 1468.96875 1146.53125 1468.96875 L 1150.230469 1499.449219 C 1144.710938 1488.210938 1133.410156 1473.96875 1120.601562 1461.949219 C 1105.78125 1448.039062 1081.179688 1431.460938 1056.671875 1422.019531 C 1040.160156 1415.671875 1021.351562 1413.390625 1021.351562 1413.390625 C 1004 1412.058594 949.484375 1409.488281 899.21875 1409.488281 C 879.804688 1409.488281 852.421875 1404.898438 840.414062 1400.628906 C 821.335938 1393.828125 801.222656 1384.25 801.222656 1384.25 C 780.429688 1387.429688 759.769531 1393.488281 735.796875 1405.25 C 707.6875 1419.039062 654.609375 1434.039062 592.109375 1445.410156 C 534.519531 1455.890625 459.578125 1500.308594 438.410156 1504.171875 C 417.246094 1508.03125 363.804688 1466.671875 351.636719 1455.078125 C 339.464844 1443.5 324.75 1409.171875 329.035156 1398.691406 C 333.320312 1388.210938 348.085938 1350.148438 362.371094 1333.058594 C 376.65625 1315.960938 409.992188 1303.269531 418.988281 1306.578125 C 427.980469 1309.890625 417.929688 1338.570312 417.398438 1349.050781 C 416.871094 1359.53125 413.695312 1396.488281 413.695312 1396.488281 L 416.339844 1403.109375 C 418.988281 1409.71875 448.800781 1409.121094 467.847656 1402.5 C 486.894531 1395.878906 608.289062 1329.191406 665.128906 1304.410156 C 683.945312 1296.199219 703.828125 1290.460938 720.308594 1287.039062 C 753.597656 1280.121094 776.910156 1281.320312 776.910156 1281.320312 L 1032.429688 1266.070312 L 1023.960938 1271.03125 C 1015.5 1276 973.597656 1308.199219 973.597656 1308.199219 C 973.597656 1308.199219 999.476562 1288.699219 1037.671875 1273.089844 C 1064.21875 1262.230469 1097.011719 1257.289062 1128.300781 1255.019531 C 1199.398438 1249.851562 1273.929688 1285.910156 1273.929688 1285.910156 C 1278.351562 1329.441406 1293.449219 1352.929688 1306.28125 1371.601562 L 1293.710938 1333.671875 C 1281.148438 1295.75 1276.460938 1218.289062 1310.191406 1146.578125 C 1325.570312 1113.878906 1372.230469 1086.578125 1418.601562 1086.890625 C 1464.121094 1087.179688 1509.359375 1114.488281 1524.460938 1146.578125 C 1558.191406 1218.289062 1553.5 1295.75 1540.929688 1333.671875 L 1528.359375 1371.601562 C 1541.199219 1352.929688 1556.300781 1329.441406 1560.710938 1285.910156 C 1560.710938 1285.910156 1635.25 1249.851562 1706.351562 1255.019531 C 1737.640625 1257.289062 1770.429688 1262.230469 1796.980469 1273.089844 C 1835.171875 1288.699219 1861.050781 1308.199219 1861.050781 1308.199219 C 1861.050781 1308.199219 1819.148438 1276 1810.679688 1271.03125 L 1802.21875 1266.070312 L 2057.730469 1281.320312 C 2057.730469 1281.320312 2081.050781 1280.121094 2114.339844 1287.039062 C 2130.820312 1290.460938 2150.699219 1296.199219 2169.519531 1304.410156 C 2226.359375 1329.191406 2347.75 1395.878906 2366.800781 1402.5 C 2385.851562 1409.121094 2415.660156 1409.71875 2418.300781 1403.109375 L 2420.949219 1396.488281 C 2420.949219 1396.488281 2417.78125 1359.53125 2417.25 1349.050781 C 2416.71875 1338.570312 2406.660156 1309.890625 2415.660156 1306.578125 C 2424.648438 1303.269531 2457.988281 1315.960938 2472.28125 1333.058594 C 2486.558594 1350.148438 2501.320312 1388.210938 2505.609375 1398.691406 C 2509.890625 1409.171875 2495.179688 1443.5 2483.011719 1455.078125 C 2470.839844 1466.671875 2417.398438 1508.03125 2396.230469 1504.171875 C 2375.070312 1500.308594 2300.128906 1455.890625 2242.539062 1445.410156 C 2180.03125 1434.039062 2126.960938 1419.039062 2098.851562 1405.25 C 2074.878906 1393.488281 2054.210938 1387.429688 2033.429688 1384.25 C 2033.429688 1384.25 2013.308594 1393.828125 1994.230469 1400.628906 C 1982.21875 1404.898438 1954.839844 1409.488281 1935.429688 1409.488281 C 1885.160156 1409.488281 1830.648438 1412.058594 1813.289062 1413.390625 C 1813.289062 1413.390625 1794.480469 1415.671875 1777.980469 1422.019531 C 1753.460938 1431.460938 1728.871094 1448.039062 1714.039062 1461.949219 C 1701.230469 1473.96875 1689.929688 1488.210938 1684.421875 1499.449219 L 1688.121094 1468.96875 C 1688.121094 1468.96875 1681.730469 1503.679688 1670.511719 1530.679688 C 1668.828125 1534.71875 1666.820312 1538.851562 1664.648438 1542.929688 C 1638.628906 1529.789062 1610.230469 1519.390625 1577.839844 1519.460938 C 1530.941406 1519.550781 1500.199219 1538.671875 1470.339844 1558.261719 C 1455.460938 1568.03125 1441.421875 1579.011719 1424.691406 1579.191406 C 1397.679688 1579.460938 1374.570312 1564.929688 1352.441406 1552.289062 C 1318.828125 1533.058594 1286.761719 1516.070312 1246.039062 1517.570312 L 1246.039062 1517.578125 C 1216.449219 1518.199219 1190.660156 1526.46875 1167.171875 1537.390625 "/>
</svg>
